<svg width="256" height="256" viewBox="0 0 256 256" fill="none" xmlns="http://www.w3.org/2000/svg">
<rect width="256" height="256" rx="32" fill="#F3EDE3"/>
<path d="M32 192L128.5 45.5C128.5 75.5 128.5 125 128.5 160C128.5 224.5 171.082 224.5 192 224.5H224.5" stroke="#1F211F" stroke-width="8" stroke-linecap="round"/>
<path d="M64 92C61.7909 92 60 93.7909 60 96C60 98.2091 61.7909 100 64 100V92ZM128 96V100V96ZM64 100H128V92H64V100ZM128 100C137.9 100 153.422 99.8276 166.467 103.543C172.952 105.391 178.47 108.109 182.331 111.982C186.085 115.748 188.5 120.824 188.5 128H196.5C196.5 118.771 193.29 111.644 187.997 106.334C182.811 101.132 175.86 97.9007 168.658 95.8494C154.328 91.7675 137.6 92 128 92L128 100ZM188.5 128C188.5 135.14 186.647 140.146 183.73 143.788C180.773 147.479 176.424 150.142 170.798 152.018C159.349 155.834 143.935 156 128 156V164C143.565 164 160.401 163.916 173.327 159.607C179.889 157.42 185.758 154.053 189.973 148.79C194.228 143.479 196.5 136.61 196.5 128H188.5Z" fill="#1F211F"/>
<path d="M193 160.5C177.834 160.5 179.7 160.5 164.5 160.5C134 160.5 133.5 189.5 133.5 192" stroke="#1F211F" stroke-width="8" stroke-linecap="round"/>
</svg>
